<svg xmlns="http://www.w3.org/2000/svg" xmlns:xlink="http://www.w3.org/1999/xlink" viewBox="0 0 316.72 52.48"><defs><style>.cls-1{fill:#2e576e;}.cls-2{fill:url(#linear-gradient);}.cls-3{fill:url(#linear-gradient-2);}.cls-4{fill:url(#linear-gradient-3);}.cls-5{fill:url(#linear-gradient-4);}.cls-6{fill:url(#linear-gradient-5);}.cls-7{fill:url(#linear-gradient-6);}.cls-8{fill:url(#linear-gradient-7);}.cls-9{fill:url(#linear-gradient-8);}.cls-10{fill:url(#linear-gradient-9);}.cls-11{fill:url(#linear-gradient-10);}.cls-12{fill:url(#linear-gradient-11);}.cls-13{fill:url(#linear-gradient-12);}.cls-14{fill:url(#linear-gradient-13);}.cls-15{fill:url(#linear-gradient-14);}.cls-16{fill:url(#linear-gradient-15);}.cls-17{fill:url(#linear-gradient-16);}.cls-18{fill:url(#linear-gradient-17);}</style><linearGradient id="linear-gradient" x1="1.53" y1="29.47" x2="48.75" y2="29.47" gradientTransform="matrix(1, 0, 0, -1, 0, 70.63)" gradientUnits="userSpaceOnUse"><stop offset="0" stop-color="#c18f2c"/><stop offset="0.13" stop-color="#c18f2c"/><stop offset="0.26" stop-color="#ffcc6f"/><stop offset="0.57" stop-color="#c18f2c"/><stop offset="0.82" stop-color="#ffcc6f"/><stop offset="1" stop-color="#c18f2c"/></linearGradient><linearGradient id="linear-gradient-2" x1="0.64" y1="67.18" x2="47.86" y2="67.18" xlink:href="#linear-gradient"/><linearGradient id="linear-gradient-3" x1="-0.26" y1="29.43" x2="46.99" y2="29.43" xlink:href="#linear-gradient"/><linearGradient id="linear-gradient-4" x1="-0.58" y1="44.3" x2="46.21" y2="44.3" xlink:href="#linear-gradient"/><linearGradient id="linear-gradient-5" x1="0.62" y1="21.3" x2="46.46" y2="21.3" xlink:href="#linear-gradient"/><linearGradient id="linear-gradient-6" x1="-0.47" y1="34.52" x2="45.24" y2="34.52" xlink:href="#linear-gradient"/><linearGradient id="linear-gradient-7" x1="2.28" y1="21.34" x2="47.94" y2="21.34" xlink:href="#linear-gradient"/><linearGradient id="linear-gradient-8" x1="0.63" y1="21.4" x2="47.87" y2="21.4" xlink:href="#linear-gradient"/><linearGradient id="linear-gradient-9" x1="-0.51" y1="44.29" x2="48.83" y2="44.29" xlink:href="#linear-gradient"/><linearGradient id="linear-gradient-10" x1="-0.47" y1="54.06" x2="45.2" y2="54.06" xlink:href="#linear-gradient"/><linearGradient id="linear-gradient-11" x1="1.51" y1="59.12" x2="48.76" y2="59.12" xlink:href="#linear-gradient"/><linearGradient id="linear-gradient-12" x1="3.75" y1="54" x2="49.08" y2="54" xlink:href="#linear-gradient"/><linearGradient id="linear-gradient-13" x1="3.75" y1="34.58" x2="49.08" y2="34.58" xlink:href="#linear-gradient"/><linearGradient id="linear-gradient-14" x1="2.36" y1="44.3" x2="49.1" y2="44.3" xlink:href="#linear-gradient"/><linearGradient id="linear-gradient-15" x1="2.35" y1="67.23" x2="47.92" y2="67.23" xlink:href="#linear-gradient"/><linearGradient id="linear-gradient-16" x1="-0.26" y1="59.16" x2="46.99" y2="59.16" xlink:href="#linear-gradient"/><linearGradient id="linear-gradient-17" x1="0.64" y1="67.27" x2="46.43" y2="67.27" xlink:href="#linear-gradient"/></defs><title>Asset 2</title><g id="Layer_2" data-name="Layer 2"><g id="Layer_1-2" data-name="Layer 1"><path class="cls-1" d="M96.82,38.11a14.84,14.84,0,0,1-14.19,9.27c-8.85,0-15.47-6.24-15.47-15.6,0-9.19,6.62-15.47,15.47-15.47,6.92,0,11.88,3.76,13.84,8.46L90.58,26.4a9.13,9.13,0,0,0-8.2-4.49c-5.52,0-9.24,3.93-9.24,9.91s3.93,10,9.19,10A9.18,9.18,0,0,0,91,36.57Z"/><path class="cls-1" d="M124.6,33.79c0,8.81-4.87,13.59-12.65,13.59S99.26,42.59,99.26,33.79V16.91h6V33.62c0,5.6,2.21,8.17,6.7,8.17s6.71-2.57,6.71-8.17V16.91h5.9Z"/><path class="cls-1" d="M132.68,37.68c.47,3,3.07,4.49,6.75,4.49,3.25,0,5.26-1.24,5.26-3.72,0-3.54-4-3.5-7.74-4.4-4.06-.94-9.14-2.69-9.14-8.93,0-5.81,4.35-8.81,10.94-8.81,5.9,0,10.17,2.44,11.75,7.69l-5.68,1.5c-.77-2.52-2.73-3.93-6.2-3.93-3.29,0-4.74,1.28-4.74,3.37,0,3,3.15,3.55,7.35,4.41,4.44.86,9.49,2.56,9.49,9.1,0,5.94-4.19,8.93-11.29,8.93-5.13,0-11-1.58-12.43-8.16Z"/><path class="cls-1" d="M181.7,38.11a14.82,14.82,0,0,1-14.19,9.27c-8.84,0-15.47-6.24-15.47-15.6,0-9.19,6.62-15.47,15.47-15.47,6.92,0,11.89,3.76,13.84,8.46l-5.89,1.63a9.1,9.1,0,0,0-8.2-4.49c-5.52,0-9.24,3.93-9.24,9.91s3.94,10,9.19,10a9.18,9.18,0,0,0,8.64-5.21Z"/><path class="cls-1" d="M190.38,40.84l-2.27,6h-6.28l12-29.92h6.72l12,29.92h-6.37l-2.28-6Zm8.89-12c-1-2.57-2.05-5.21-2.1-5.26h-.12c-.05.05-1.07,2.65-2.09,5.26l-2.52,6.57h9.31Z"/><path class="cls-1" d="M224.07,22.42V46.83h-5.95V22.42h-9.53V16.91h25v5.51Z"/><path class="cls-1" d="M236.42,16.91h5.94v24.4h14.18v5.52H236.42Z"/><path class="cls-1" d="M279.66,40.84H266.2l-2.27,6h-6.28l12-29.92h6.72l12,29.92h-6.37l-2.27-6m-4.57-12c-1-2.57-2-5.21-2.09-5.26h-.14c0,.05-1.06,2.65-2.08,5.26l-2.52,6.57h9.31Z"/><path class="cls-1" d="M296.38,26.82h-.14c0,.05.09,3.64.09,7.44V46.83H290.4V16.91h6l14.31,19.7h.13s-.08-3.75-.08-7V16.91h5.94V46.83h-6Z"/><path class="cls-1" d="M75.25,5.18a2.68,2.68,0,0,1,2.51,2.64c0,1.72-1.34,2.92-3.53,2.92H70V.21h4C75.78.21,77,1.39,77,2.79a2.2,2.2,0,0,1-1.78,2.33v.06Zm-1.54-.36A2,2,0,0,0,76,2.92c0-1-.85-1.79-2.23-1.79H71V4.82Zm.49,5c1.41,0,2.49-.74,2.49-2s-1.17-2.12-2.58-2.12H71V9.82Z"/><path class="cls-1" d="M81.35,7.66,80.1,10.74H79L83.47.21h1.17l4.44,10.53H88L86.7,7.66Zm3.88-3.58c-.82-1.93-1.15-2.9-1.18-2.91h0s-.4,1.07-1.23,3.05l-1,2.51h4.57Z"/><path class="cls-1" d="M98.68,10.74,92.16,1.79h0s0,1.14,0,2.43v6.52h-1V.21H92.2L98.68,9h0s0-1.1,0-2.31V.21h1V10.74Z"/><path class="cls-1" d="M112.57,7.9A5.56,5.56,0,0,1,102,5.48,5.37,5.37,0,0,1,107.55,0a5.11,5.11,0,0,1,4.92,3.11l-1,.26A4.25,4.25,0,0,0,107.6,1a4.32,4.32,0,0,0-4.51,4.5A4.33,4.33,0,0,0,107.57,10a4.41,4.41,0,0,0,4-2.37Z"/><path class="cls-1" d="M119.74,0a5.38,5.38,0,0,1,5.49,5.49,5.49,5.49,0,0,1-11,0A5.37,5.37,0,0,1,119.74,0Zm0,10a4.34,4.34,0,0,0,4.43-4.5,4.43,4.43,0,1,0-8.85,0A4.32,4.32,0,0,0,119.74,10Z"/><path class="cls-2" d="M42.22,46.91a67.65,67.65,0,0,0-6.84-1.3A64.61,64.61,0,0,1,45.57,35.42c.31,2.28.75,4.57,1.28,6.8A26.34,26.34,0,0,1,42.22,46.91Z"/><path class="cls-3" d="M26.29,6.68a66.1,66.1,0,0,1-7.2-.4c1.41-1.87,2.75-3.84,4-5.86a24.9,24.9,0,0,1,3.05-.2,27,27,0,0,1,3.42.24,69,69,0,0,0,4,5.81A63.74,63.74,0,0,1,26.29,6.68Z"/><path class="cls-4" d="M10.11,47a25.67,25.67,0,0,1-4.47-4.43A71.48,71.48,0,0,0,7,35.42a64.87,64.87,0,0,1,5.37,4.81,66.7,66.7,0,0,1,4.81,5.38A69.73,69.73,0,0,0,10.11,47Z"/><path class="cls-5" d="M6.23,33.53a68.13,68.13,0,0,0-6.05-4.1A25.26,25.26,0,0,1,0,26.35a28.2,28.2,0,0,1,.19-3.12,66.53,66.53,0,0,0,6-4.09,66.44,66.44,0,0,1,.41,7.2A66.26,66.26,0,0,1,6.23,33.53Z"/><path class="cls-6" d="M21.8,52.11a26,26,0,0,1-10.63-4.35,66.45,66.45,0,0,1,6.75-1.22C19.28,48.29,20.58,50.17,21.8,52.11Z"/><path class="cls-7" d="M4.86,41.51A26,26,0,0,1,.36,30.72a66.4,66.4,0,0,1,5.73,4A68.62,68.62,0,0,1,4.86,41.51Z"/><path class="cls-8" d="M30.81,52c1.2-1.92,2.5-3.77,3.84-5.5a62.53,62.53,0,0,1,6.5,1.17A26.11,26.11,0,0,1,30.81,52Z"/><path class="cls-9" d="M26.12,52.48a29.08,29.08,0,0,1-3-.18,65.78,65.78,0,0,0-4-5.91,68.71,68.71,0,0,1,7.2-.4,68.86,68.86,0,0,1,7.2.4,66.34,66.34,0,0,0-4,5.86A26.42,26.42,0,0,1,26.12,52.48Z"/><path class="cls-10" d="M18.36,45.47a61.52,61.52,0,0,0-5.25-5.95,68.3,68.3,0,0,0-5.94-5.27,70.15,70.15,0,0,0,.48-7.91,68,68,0,0,0-.48-7.93,68.22,68.22,0,0,0,5.94-5.26,68.33,68.33,0,0,0,5.25-5.94,68.48,68.48,0,0,0,7.93.48,68.35,68.35,0,0,0,7.93-.48,68.33,68.33,0,0,0,5.25,5.94,66.94,66.94,0,0,0,6,5.26,64.25,64.25,0,0,0,0,15.84,66.84,66.84,0,0,0-6,5.27,68.48,68.48,0,0,0-5.27,5.94A67.62,67.62,0,0,0,26.29,45,66.4,66.4,0,0,0,18.36,45.47ZM26.12,8.86A17.49,17.49,0,1,0,43.61,26.35,17.51,17.51,0,0,0,26.12,8.86Z"/><path class="cls-11" d="M.37,22A26.14,26.14,0,0,1,4.86,11.2,67.84,67.84,0,0,1,6.09,18,66.93,66.93,0,0,1,.37,22Z"/><path class="cls-12" d="M45.57,17.25a67.1,67.1,0,0,1-5.38-4.81,66.5,66.5,0,0,1-4.81-5.38,67.32,67.32,0,0,0,6.79-1.29,26.08,26.08,0,0,1,4.68,4.71A66.25,66.25,0,0,0,45.57,17.25Z"/><path class="cls-13" d="M51.82,21.69C49.93,20.5,48.14,19.25,46.5,18a62.92,62.92,0,0,1,1.14-6.41A26.31,26.31,0,0,1,51.82,21.69Z"/><path class="cls-14" d="M47.64,41.13a64,64,0,0,1-1.14-6.44Q49,32.75,51.83,31A26.07,26.07,0,0,1,47.64,41.13Z"/><path class="cls-15" d="M46.34,33.53a68.67,68.67,0,0,1-.4-7.19,68.56,68.56,0,0,1,.4-7.2C48.17,20.53,50.08,21.83,52,23a25.5,25.5,0,0,1,.22,3.33A24.64,24.64,0,0,1,52,29.63C50.08,30.83,48.17,32.13,46.34,33.53Z"/><path class="cls-16" d="M34.66,6.13A63.37,63.37,0,0,1,30.88.67,26.23,26.23,0,0,1,41.11,5C39,5.47,36.8,5.86,34.66,6.13Z"/><path class="cls-17" d="M7,17.25a67.09,67.09,0,0,0-1.36-7.09A26.32,26.32,0,0,1,10.14,5.7,67,67,0,0,0,17.2,7.05a63.26,63.26,0,0,1-4.81,5.39A65.23,65.23,0,0,1,7,17.25Z"/><path class="cls-18" d="M17.92,6.13a65,65,0,0,1-6.7-1.21A26,26,0,0,1,21.77.59,66.26,66.26,0,0,1,17.92,6.13Z"/></g></g></svg>