<?xml version="1.0" encoding="utf-8"?>
<!-- Generator: Adobe Illustrator 15.0.0, SVG Export Plug-In  -->
<!DOCTYPE svg PUBLIC "-//W3C//DTD SVG 1.1//EN" "http://www.w3.org/Graphics/SVG/1.1/DTD/svg11.dtd" [
	<!ENTITY ns_flows "http://ns.adobe.com/Flows/1.0/">
]>
<svg version="1.1"
	 xmlns="http://www.w3.org/2000/svg" xmlns:xlink="http://www.w3.org/1999/xlink" xmlns:a="http://ns.adobe.com/AdobeSVGViewerExtensions/3.0/"
	 x="0px" y="0px" width="113px" height="20px" viewBox="-1.544 -1.492 113 20" enable-background="new -1.544 -1.492 113 20"
	 xml:space="preserve">
<defs>
</defs>
<path fill="#FFFFFF" d="M12.04,4.338l4.142,4.14l-3.224,3.228L8.815,7.562L12.04,4.338z M5.812,5.347c0,0,0.79-1.162,0.968-2.502
	c0.182-1.34-0.579-1.911-0.579-1.911S5.664,1.922,5.579,3.091C5.5,4.258,5.812,5.347,5.812,5.347 M5.396,5.703
	c-0.047,0-1.422-0.673-2.391-0.778c-0.967-0.103-1.99,0.306-1.99,0.306s0.437,0.845,2.03,0.942C4.64,6.26,5.396,5.703,5.396,5.703
	 M6.667,4.751l3.27-3.265l1.757,1.755L8.091,6.839l-1.725-1.73C6.101,5.383,5.661,5.795,5.455,6.015l1.73,1.729l-3.599,3.597
	L1.829,9.587l3.408-3.41c-0.722,0.51-2.002,1.111-3.419,1.289c-1.57,0.202-1.89-1.218-1.806-1.537
	C0.091,5.609,0.108,5.206,0.35,4.188c0.246-1.018,1.354-0.996,2.33-0.737c0.976,0.261,2.574,1.668,2.574,1.668
	s-0.41-0.601-0.751-1.48C4.163,2.759,4.036,2.304,4.063,1.504C4.094,0.609,4.925,0.059,5.536,0.01
	c0.611-0.039,1.252,0.041,1.727,0.107c0.472,0.069,1.003,0.544,0.916,1.706C8.107,2.759,7.162,4.115,6.667,4.751 M7.907,8.466
	l4.144,4.144l-3.223,3.225L4.686,11.69L7.907,8.466z"/>
<path fill-rule="evenodd" clip-rule="evenodd" fill="#FFFFFF" d="M29.645,13.504V7.942V7.364c0-0.204,0.002-0.404,0.007-0.606
	c0.007-0.202,0.017-0.378,0.017-0.54c0.012-0.159,0.012-0.282,0.012-0.375c-0.068,0.174-0.176,0.442-0.324,0.81
	c-0.147,0.37-0.296,0.729-0.446,1.063l-2.899,5.977l-2.866-5.977C23,7.383,22.851,7.023,22.705,6.654
	c-0.147-0.368-0.254-0.636-0.328-0.81c0,0.093,0.002,0.216,0.01,0.375c0.007,0.162,0.014,0.338,0.018,0.54s0.007,0.402,0.007,0.606
	v0.578v5.562h-1.688V2.315h1.843l2.677,5.614c0.149,0.342,0.303,0.706,0.462,1.092c0.158,0.385,0.279,0.706,0.357,0.951
	c0.093-0.245,0.211-0.564,0.361-0.946c0.146-0.38,0.296-0.75,0.441-1.097l2.629-5.614h1.925v11.189H29.645z"/>
<path fill-rule="evenodd" clip-rule="evenodd" fill="#FFFFFF" d="M38.473,13.495l0.019-0.85c-0.232,0.326-0.545,0.59-0.951,0.771
	c-0.402,0.183-0.836,0.277-1.304,0.277c-1.045,0-1.837-0.337-2.38-1.004c-0.541-0.675-0.811-1.679-0.811-3.007V4.551h1.777v5.057
	c0,0.903,0.156,1.539,0.48,1.903c0.321,0.364,0.77,0.543,1.344,0.543c0.586,0,1.036-0.197,1.351-0.595
	c0.316-0.4,0.475-0.954,0.475-1.683V4.551h1.771v8.943H38.473z"/>
<polygon fill-rule="evenodd" clip-rule="evenodd" fill="#FFFFFF" points="41.795,13.504 41.795,2.741 43.568,1.82 43.568,13.504 "/>
<path fill-rule="evenodd" clip-rule="evenodd" fill="#FFFFFF" d="M49.768,13.282c-0.216,0.126-0.468,0.226-0.76,0.301
	c-0.285,0.07-0.612,0.109-0.959,0.109c-0.628,0-1.116-0.193-1.476-0.579c-0.359-0.387-0.541-0.981-0.541-1.793V6.156h-1.275V4.551
	h1.275V2.74l1.726-0.92v2.731h2.22v1.605h-2.22v4.856c0,0.424,0.069,0.708,0.214,0.855c0.14,0.146,0.375,0.219,0.707,0.219
	c0.228,0,0.461-0.032,0.701-0.11c0.238-0.07,0.438-0.155,0.598-0.242L49.768,13.282z"/>
<path fill-rule="evenodd" clip-rule="evenodd" fill="#FFFFFF" d="M53.343,2.644c0,0.309-0.108,0.572-0.331,0.792
	c-0.226,0.226-0.489,0.333-0.796,0.333c-0.317,0-0.586-0.108-0.808-0.333c-0.222-0.221-0.333-0.483-0.333-0.792
	c0-0.322,0.111-0.59,0.333-0.806c0.222-0.225,0.491-0.335,0.808-0.335c0.307,0,0.571,0.11,0.796,0.335
	C53.235,2.054,53.343,2.322,53.343,2.644 M51.331,4.551h1.774v8.953h-1.774V4.551z"/>
<path fill-rule="evenodd" clip-rule="evenodd" fill="#FFFFFF" d="M63.735,6.048c0,0.614-0.095,1.16-0.287,1.623
	c-0.192,0.467-0.464,0.855-0.816,1.177c-0.352,0.317-0.771,0.556-1.252,0.714c-0.481,0.159-1.012,0.241-1.59,0.241h-3.113v3.7
	h-1.774V2.314h4.996c0.548,0,1.054,0.076,1.523,0.243c0.476,0.158,0.882,0.392,1.221,0.703c0.345,0.314,0.608,0.703,0.806,1.169
	C63.64,4.893,63.735,5.434,63.735,6.048 M61.913,6.048c0-0.658-0.184-1.164-0.552-1.518c-0.368-0.353-0.867-0.525-1.491-0.525
	h-3.193v4.106h3.193c0.685,0,1.193-0.178,1.534-0.542C61.741,7.208,61.913,6.697,61.913,6.048"/>
<path fill-rule="evenodd" clip-rule="evenodd" fill="#FFFFFF" d="M69.518,6.408c-0.196-0.099-0.392-0.18-0.6-0.236
	c-0.205-0.06-0.451-0.086-0.75-0.086c-0.551,0-0.987,0.193-1.291,0.581c-0.311,0.388-0.467,0.96-0.467,1.718v5.12H64.64V4.55h1.771
	v0.853c0.204-0.295,0.49-0.542,0.849-0.742c0.358-0.199,0.756-0.3,1.198-0.3c0.368,0,0.666,0.035,0.899,0.096
	c0.23,0.063,0.44,0.154,0.624,0.285L69.518,6.408z"/>
<path fill-rule="evenodd" clip-rule="evenodd" fill="#FFFFFF" d="M77.533,8.851c0,0.157-0.009,0.31-0.02,0.448
	C77.5,9.443,77.491,9.56,77.482,9.649h-5.923c0.045,0.434,0.139,0.806,0.274,1.109c0.137,0.307,0.304,0.56,0.512,0.762
	c0.201,0.195,0.429,0.34,0.681,0.442c0.249,0.097,0.513,0.147,0.784,0.147c0.375,0,0.72-0.066,1.032-0.192
	c0.314-0.12,0.617-0.301,0.911-0.527l1.042,1.13c-0.397,0.373-0.842,0.662-1.328,0.867c-0.491,0.206-1.078,0.307-1.759,0.307
	c-0.525,0-1.021-0.101-1.491-0.307c-0.473-0.205-0.887-0.506-1.237-0.903c-0.357-0.397-0.628-0.889-0.836-1.472
	c-0.205-0.573-0.308-1.235-0.308-1.973c0-0.766,0.1-1.435,0.289-2.016c0.196-0.581,0.463-1.066,0.802-1.46
	c0.345-0.388,0.759-0.688,1.237-0.895c0.484-0.202,1.019-0.308,1.599-0.308c0.632,0,1.189,0.121,1.659,0.36
	c0.476,0.24,0.867,0.56,1.177,0.974c0.316,0.405,0.548,0.887,0.702,1.429C77.455,7.672,77.533,8.245,77.533,8.851 M75.753,8.2
	c-0.02-0.31-0.072-0.595-0.16-0.867c-0.085-0.275-0.21-0.509-0.382-0.718c-0.172-0.206-0.386-0.366-0.642-0.487
	c-0.257-0.118-0.567-0.18-0.929-0.18c-0.586,0-1.062,0.198-1.406,0.589c-0.348,0.393-0.562,0.949-0.638,1.664H75.753z"/>
<path fill-rule="evenodd" clip-rule="evenodd" fill="#FFFFFF" d="M89.004,13.504V8.449c0-0.902-0.141-1.539-0.425-1.903
	c-0.278-0.367-0.714-0.547-1.285-0.547c-0.594,0-1.021,0.199-1.304,0.597c-0.274,0.397-0.413,0.96-0.413,1.687v5.223h-1.773V8.449
	c0-0.902-0.142-1.539-0.425-1.903c-0.285-0.367-0.713-0.547-1.294-0.547c-0.584,0-1.018,0.199-1.295,0.597
	c-0.274,0.397-0.416,0.96-0.416,1.687v5.223h-1.776V4.561h1.776l-0.018,0.855c0.226-0.338,0.521-0.593,0.893-0.776
	c0.36-0.185,0.773-0.279,1.237-0.279c0.619,0,1.122,0.116,1.514,0.335c0.393,0.228,0.707,0.559,0.942,0.994
	c0.165-0.21,0.329-0.393,0.509-0.555c0.178-0.155,0.371-0.294,0.593-0.409c0.215-0.115,0.455-0.207,0.721-0.269
	c0.272-0.062,0.58-0.096,0.936-0.096c1.045,0,1.824,0.335,2.327,1.003c0.5,0.674,0.75,1.675,0.75,3.008v5.132H89.004z"/>
<path fill-rule="evenodd" clip-rule="evenodd" fill="#FFFFFF" d="M94.269,2.644c0,0.309-0.113,0.572-0.336,0.792
	c-0.22,0.226-0.483,0.333-0.795,0.333c-0.316,0-0.587-0.108-0.81-0.333C92.108,3.216,92,2.953,92,2.644
	c0-0.322,0.107-0.59,0.328-0.806c0.223-0.225,0.493-0.335,0.81-0.335c0.312,0,0.575,0.11,0.795,0.335
	C94.156,2.054,94.269,2.322,94.269,2.644 M92.252,4.551h1.773v8.953h-1.773V4.551z"/>
<path fill-rule="evenodd" clip-rule="evenodd" fill="#FFFFFF" d="M103.123,8.99c0,0.737-0.102,1.398-0.305,1.982
	c-0.204,0.589-0.487,1.084-0.854,1.481c-0.361,0.403-0.79,0.713-1.278,0.926c-0.487,0.212-1.024,0.314-1.605,0.314
	c-0.568,0-1.092-0.111-1.564-0.333c-0.481-0.224-0.896-0.54-1.247-0.946c-0.354-0.41-0.629-0.899-0.829-1.47
	c-0.2-0.569-0.297-1.2-0.297-1.906c0-0.728,0.103-1.381,0.308-1.963c0.201-0.583,0.481-1.072,0.843-1.479
	c0.358-0.401,0.78-0.709,1.262-0.92c0.486-0.208,1.009-0.315,1.579-0.315c0.564,0,1.098,0.114,1.585,0.333
	c0.491,0.221,0.912,0.533,1.271,0.93c0.361,0.396,0.636,0.885,0.837,1.459C103.023,7.658,103.123,8.291,103.123,8.99 M101.349,9.039
	c0-0.925-0.202-1.654-0.603-2.193c-0.403-0.539-0.964-0.81-1.679-0.81c-0.674,0-1.203,0.271-1.579,0.81
	c-0.382,0.539-0.572,1.25-0.572,2.144c0,0.984,0.203,1.733,0.617,2.253c0.408,0.521,0.942,0.777,1.619,0.777
	c0.329,0,0.63-0.077,0.904-0.238c0.27-0.159,0.503-0.373,0.697-0.638c0.191-0.271,0.342-0.585,0.445-0.949
	C101.3,9.836,101.349,9.449,101.349,9.039"/>
<path fill-rule="evenodd" clip-rule="evenodd" fill="#FFFFFF" d="M110.25,11.047c0,0.503-0.09,0.921-0.281,1.254
	c-0.187,0.336-0.431,0.606-0.739,0.81c-0.308,0.21-0.664,0.357-1.067,0.447c-0.403,0.091-0.825,0.136-1.268,0.136
	c-0.619,0-1.228-0.108-1.834-0.325c-0.608-0.217-1.141-0.487-1.596-0.817l0.801-1.332c0.422,0.295,0.855,0.518,1.307,0.668
	c0.45,0.146,0.883,0.223,1.304,0.223c1.09,0,1.639-0.331,1.639-0.993c0-0.338-0.188-0.613-0.556-0.819
	c-0.369-0.206-0.88-0.431-1.528-0.687c-0.476-0.176-0.887-0.359-1.213-0.549c-0.341-0.189-0.611-0.394-0.825-0.606
	c-0.213-0.213-0.361-0.461-0.455-0.721c-0.087-0.269-0.132-0.578-0.132-0.929c0-0.402,0.075-0.756,0.223-1.063
	c0.147-0.305,0.356-0.561,0.628-0.767c0.272-0.205,0.601-0.356,0.975-0.458c0.371-0.104,0.782-0.157,1.229-0.157
	c0.568,0,1.116,0.092,1.643,0.272c0.53,0.183,0.994,0.42,1.39,0.718l-0.767,1.352c-0.361-0.263-0.731-0.458-1.109-0.584
	c-0.373-0.123-0.776-0.188-1.212-0.188c-0.427,0-0.743,0.078-0.933,0.228c-0.194,0.155-0.293,0.354-0.293,0.597
	c0,0.106,0.023,0.211,0.068,0.31c0.047,0.099,0.131,0.199,0.256,0.299c0.125,0.102,0.294,0.208,0.503,0.317
	c0.212,0.106,0.489,0.227,0.829,0.365c0.498,0.196,0.939,0.375,1.31,0.556c0.378,0.176,0.694,0.371,0.95,0.597
	c0.252,0.22,0.447,0.479,0.572,0.772C110.189,10.27,110.25,10.63,110.25,11.047"/>
</svg>
